<svg xmlns="http://www.w3.org/2000/svg" viewBox="0 0 600 180">
  <g>
    <polygon points="117.9 59.25 90 0 62.1 59.25 90 90 117.9 59.25" style="fill: #eb8956"/>
    <polyline points="90 90 117.9 59.25 180 68.75 135 114.75 90 90" style="fill: #d94e41"/>
    <polyline points="90 90 62.1 59.25 0 68.75 45 114.75 90 90" style="fill: #29516d"/>
    <polyline points="90 90 90 149.25 145.62 180 135.01 114.75 90 90" style="fill: #793b42"/>
    <polyline points="90 90 90 149.25 34.38 180 44.99 114.75 90 90" style="fill: #1a2844"/>
  </g>
  <g>
    <path d="M206.8,71.18V28.41H195.92V16h35.77V28.41H220.88V71.18Z" style="fill: #1a2844"/>
    <path d="M237.35,71.18V16H268V28.41H250.84V37h16.61V49.35H250.84v9.46H268V71.18Z" style="fill: #1a2844"/>
    <path d="M311.49,71.18,299.57,51.66,288.24,71.18H272.52l19.3-29.36L274.76,16H290.7l9.46,15.72L309.33,16H325.2L308.36,42.12l19.07,29.06Z" style="fill: #1a2844"/>
    <path d="M368.79,71.18l-2.68-8H347l-2.91,8H328.93L351.06,16h11.1l21.9,55.14ZM356.72,33.25l-.23-.07L350.83,52h11.55Z" style="fill: #1a2844"/>
    <path d="M411.34,32.14c-.6-3.95-2.24-5.37-5-5.37a4.61,4.61,0,0,0-4.84,4.32c0,3.28,3,4.77,9,7.38,12.14,5.22,15.2,9.61,15.2,16.84,0,10.65-7.31,16.91-19.23,16.91S386.6,66,386.6,54.12V52.93h14c.07,4.54,2.31,7.52,5.81,7.52a5.27,5.27,0,0,0,5.29-5.29c0-4.4-6.11-6.33-11.1-8.34-9-3.66-13.12-8.42-13.12-15.58,0-9.38,9.09-16.24,19.23-16.24a21,21,0,0,1,9.76,2.31c5.88,3.05,8.71,7.45,8.79,14.83Z" style="fill: #1a2844"/>
    <path d="M453.58,71.18V16h17.66a42.79,42.79,0,0,1,8.8.67c6.25,1.42,11.47,6.26,11.47,13.71A12.42,12.42,0,0,1,485.1,41.6c6,2.09,9.09,6.48,9.09,12.82a15.52,15.52,0,0,1-6.41,13c-4.32,3.06-7.15,3.73-15.87,3.73ZM472.66,37c3.5,0,5.36-1.49,5.36-4.4s-1.78-4.17-5.29-4.17h-5.66V37Zm1.64,21.83c3.95,0,6.41-1.71,6.41-5.29,0-3.2-2.16-4.77-6.34-4.77h-7.3V58.81Z" style="fill: #1a2844"/>
    <path d="M536.59,71.18l-2.68-8H514.76l-2.91,8H496.73L518.86,16H530l21.9,55.14ZM524.52,33.25l-.22-.07L518.63,52h11.55Z" style="fill: #1a2844"/>
    <path d="M583.91,71.18,571.16,53.37H571V71.18H557.53V16h18c5.74,0,10.13.75,13,2,6,2.68,10.13,9.16,10.13,17,0,8.72-5.21,15.87-13.71,17.36l15,18.78Zm-7.68-27.42c5.59,0,9-2.61,9-7.9,0-4.77-3.58-7.45-8.87-7.45H571V43.76Z" style="fill: #1a2844"/>
  </g>
  <g>
    <path d="M206.76,178.44V96.22h26.33a62.77,62.77,0,0,1,13.12,1c9.33,2.11,17.11,9.33,17.11,20.44a18.51,18.51,0,0,1-9.56,16.67c9,3.11,13.56,9.67,13.56,19.11,0,7.89-3.34,15.12-9.56,19.45-6.44,4.55-10.67,5.55-23.67,5.55Zm28.45-51c5.22,0,8-2.22,8-6.55s-2.67-6.23-7.89-6.23h-8.45v12.78ZM237.65,160c5.89,0,9.56-2.56,9.56-7.89,0-4.78-3.23-7.11-9.45-7.11H226.87v15Z" style="fill: #1a2844"/>
    <path d="M275.1,139.22c0-25.44,18.33-44.56,43.33-44.56,24,0,43.45,18.56,43.45,42.12,0,24.33-18.89,43.22-42.45,43.22C296.54,180,275.1,163.56,275.1,139.22Zm65.78-1.78c0-12.89-9.23-24.33-22.45-24.33s-22.33,11-22.33,24c0,13.56,9.22,24.45,22.66,24.45C331.76,161.56,340.88,150.55,340.88,137.44Z" style="fill: #1a2844"/>
    <path d="M369.66,139.22c0-25.44,18.33-44.56,43.33-44.56,24,0,43.45,18.56,43.45,42.12,0,24.33-18.89,43.22-42.45,43.22C391.1,180,369.66,163.56,369.66,139.22Zm65.78-1.78c0-12.89-9.23-24.33-22.45-24.33s-22.33,11-22.33,24c0,13.56,9.22,24.45,22.66,24.45C426.33,161.56,435.44,150.55,435.44,137.44Z" style="fill: #1a2844"/>
    <path d="M513.66,178.44l-22.44-35.55H491v35.55H470V96.22h21v37h.22l23.22-37h22l-27.22,41,29,41.22Z" style="fill: #1a2844"/>
    <path d="M578.55,120.22c-.88-5.89-3.33-8-7.44-8-3.89,0-7.22,2.78-7.22,6.44,0,4.89,4.44,7.12,13.44,11C595.44,137.44,600,144,600,154.78c0,15.89-10.89,25.22-28.67,25.22s-29.67-9.33-29.67-27v-1.78h20.89c.12,6.78,3.45,11.22,8.67,11.22a7.84,7.84,0,0,0,7.89-7.89c0-6.55-9.11-9.44-16.56-12.44C549.11,136.67,543,129.55,543,118.89c0-14,13.55-24.23,28.67-24.23a31.28,31.28,0,0,1,14.55,3.45c8.78,4.55,13,11.11,13.11,22.11Z" style="fill: #1a2844"/>
  </g>
</svg>
