<svg xmlns="http://www.w3.org/2000/svg" viewBox="0 0 680 190">
  <g>
    <path d="M215.35,63V34.06H208V25.71h24.16v8.35h-7.3V63Z" style="fill: #1a2844"/>
    <path d="M236,63V25.71h20.69v8.35H245.09v5.79h11.22V48.2H245.09v6.39h11.58V63Z" style="fill: #1a2844"/>
    <path d="M286.06,63,278,49.76,270.35,63H259.73l13-19.83L261.24,25.71H272l6.39,10.61,6.19-10.61h10.72L283.94,43.32,296.82,63Z" style="fill: #1a2844"/>
    <path d="M324.75,63l-1.81-5.39H310l-2,5.39H297.83l14.95-37.24h7.5L335.07,63ZM316.6,37.33l-.15,0L312.63,50h7.8Z" style="fill: #1a2844"/>
    <path d="M353.49,36.58c-.4-2.67-1.51-3.63-3.37-3.63a3.11,3.11,0,0,0-3.27,2.92c0,2.22,2,3.22,6.09,5,8.2,3.53,10.26,6.5,10.26,11.38,0,7.19-4.93,11.42-13,11.42s-13.44-4.23-13.44-12.23v-.8h9.46c.05,3.07,1.56,5.08,3.93,5.08a3.55,3.55,0,0,0,3.57-3.57c0-3-4.12-4.28-7.5-5.64C340.15,44,337.39,40.8,337.39,36c0-6.34,6.14-11,13-11A14.09,14.09,0,0,1,357,26.56c4,2.06,5.89,5,5.94,10Z" style="fill: #1a2844"/>
    <path d="M383.28,63V25.71h11.93a28.68,28.68,0,0,1,5.94.45c4.23.95,7.75,4.23,7.75,9.26A8.38,8.38,0,0,1,404.57,43a8.46,8.46,0,0,1,6.14,8.65,10.5,10.5,0,0,1-4.33,8.81c-2.92,2.06-4.83,2.52-10.72,2.52Zm12.89-23.1c2.36,0,3.62-1,3.62-3s-1.21-2.82-3.57-2.82h-3.83v5.79Zm1.1,14.74c2.67,0,4.33-1.15,4.33-3.57,0-2.16-1.46-3.22-4.28-3.22h-4.93v6.79Z" style="fill: #1a2844"/>
    <path d="M439.35,63l-1.82-5.39H424.6l-2,5.39H412.42l14.95-37.24h7.5L449.66,63Zm-8.16-25.62-.15,0L427.22,50H435Z" style="fill: #1a2844"/>
    <path d="M471.3,63l-8.6-12h-.11V63h-9.1V25.71h12.18a23.09,23.09,0,0,1,8.8,1.35c4,1.82,6.85,6.19,6.85,11.48,0,5.89-3.53,10.72-9.26,11.72L482.17,63Zm-5.18-18.52c3.77,0,6.09-1.77,6.09-5.34,0-3.22-2.42-5-6-5h-3.63V44.43Z" style="fill: #1a2844"/>
    <path d="M501.9,63V25.71h11.93a28.57,28.57,0,0,1,5.93.45c4.23.95,7.75,4.23,7.75,9.26A8.38,8.38,0,0,1,523.19,43a8.47,8.47,0,0,1,6.14,8.65A10.5,10.5,0,0,1,525,60.43c-2.92,2.06-4.83,2.52-10.72,2.52Zm12.88-23.1c2.37,0,3.63-1,3.63-3s-1.21-2.82-3.58-2.82H511v5.79Zm1.11,14.74c2.67,0,4.33-1.15,4.33-3.57,0-2.16-1.46-3.22-4.28-3.22H511v6.79Z" style="fill: #1a2844"/>
    <path d="M532.85,45.18c0-11.52,8.3-20.18,19.62-20.18,10.88,0,19.68,8.4,19.68,19.07a19.23,19.23,0,0,1-19.22,19.58C542.56,63.65,532.85,56.2,532.85,45.18Zm29.79-.8c0-5.84-4.18-11-10.17-11s-10.11,5-10.11,10.88c0,6.14,4.18,11.07,10.27,11.07C558.51,55.3,562.64,50.31,562.64,44.38Z" style="fill: #1a2844"/>
    <path d="M575.68,45.18C575.68,33.66,584,25,595.3,25,606.17,25,615,33.4,615,44.07a19.23,19.23,0,0,1-19.22,19.58C585.39,63.65,575.68,56.2,575.68,45.18Zm29.79-.8c0-5.84-4.18-11-10.17-11s-10.11,5-10.11,10.88c0,6.14,4.17,11.07,10.26,11.07C601.34,55.3,605.47,50.31,605.47,44.38Z" style="fill: #1a2844"/>
    <path d="M640.9,63,630.73,46.84h-.1V63h-9.51V25.71h9.51V42.46h.1l10.52-16.75h10L638.88,44.28,652,63Z" style="fill: #1a2844"/>
    <path d="M670.29,36.58c-.41-2.67-1.51-3.63-3.38-3.63a3.11,3.11,0,0,0-3.27,2.92c0,2.22,2,3.22,6.09,5,8.21,3.53,10.27,6.5,10.27,11.38,0,7.19-4.93,11.42-13,11.42s-13.44-4.23-13.44-12.23v-.8H663c.05,3.07,1.56,5.08,3.92,5.08a3.56,3.56,0,0,0,3.58-3.57c0-3-4.13-4.28-7.5-5.64C657,44,654.18,40.8,654.18,36c0-6.34,6.14-11,13-11a14.12,14.12,0,0,1,6.59,1.56c4,2.06,5.89,5,5.94,10Z" style="fill: #1a2844"/>
  </g>
  <g>
    <g>
      <polygon points="117.9 69.25 90 10 62.1 69.25 90 100 117.9 69.25" style="fill: #eb8956"/>
      <polyline points="90 100 117.9 69.25 180 78.75 135 124.75 90 100" style="fill: #d94e41"/>
      <polyline points="90 100 62.1 69.25 0 78.75 45 124.75 90 100" style="fill: #29516d"/>
      <polyline points="90 100 90 159.25 145.62 190 135.01 124.75 90 100" style="fill: #793b42"/>
      <polyline points="90 100 90 159.25 34.38 190 44.99 124.75 90 100" style="fill: #1a2844"/>
    </g>
    <g>
      <path d="M128.45,54.75A5.56,5.56,0,0,0,120.62,56a5.73,5.73,0,0,0,1.21,7.93,5.58,5.58,0,0,0,7.83-1.23A5.73,5.73,0,0,0,128.45,54.75ZM124,60.85a1.9,1.9,0,0,1-.41-2.64,1.86,1.86,0,0,1,2.61-.41,1.91,1.91,0,0,1,.41,2.64A1.85,1.85,0,0,1,124,60.85Z" style="fill: #eb8956"/>
      <path d="M146.44,56.27a24.54,24.54,0,0,0-9.17-13.73,24.08,24.08,0,0,0-15.69-4.71,1.89,1.89,0,0,0,.21,3.78c9.46-.54,18.68,6.3,21,15.6a1.89,1.89,0,0,0,.7,1,1.85,1.85,0,0,0,1.57.31A1.89,1.89,0,0,0,146.44,56.27Z" style="fill: #d94e41"/>
      <path d="M165,53.91A43.41,43.41,0,0,0,148.3,27.27a42.43,42.43,0,0,0-30.12-8.09,1.89,1.89,0,0,0,.41,3.76,38.7,38.7,0,0,1,27.5,7.38,39.63,39.63,0,0,1,15.26,24.32,1.92,1.92,0,0,0,.73,1.16,1.84,1.84,0,0,0,1.47.33A1.88,1.88,0,0,0,165,53.91Z" style="fill: #793b42"/>
      <path d="M183.47,51.26A62.15,62.15,0,0,0,159.33,12,60.73,60.73,0,0,0,115.13.52a1.86,1.86,0,0,0-1.61,2.11,1.86,1.86,0,0,0,2.08,1.64,57.05,57.05,0,0,1,41.52,10.79,58.35,58.35,0,0,1,22.67,36.87,1.91,1.91,0,0,0,.74,1.19,1.84,1.84,0,0,0,1.43.34A1.89,1.89,0,0,0,183.47,51.26Z" style="fill: #29516d"/>
    </g>
  </g>
  <g>
    <path d="M259.87,190C231.81,190,208,165.91,208,138.54c0-31.07,23.81-53.65,52.28-53.65,30.11,0,53.1,23.68,53.1,51.87C313.38,167.42,289.7,190,259.87,190Zm38.73-52.28c0-20.94-15.88-39.28-37.23-39.28C234,98.44,222.78,122,222.78,137c0,20.39,14.78,39.41,37.91,39.41C284.64,176.45,298.6,156.2,298.6,137.72Z" style="fill: #1a2844"/>
    <path d="M394,188.08,343.89,109.8h-.27v78.28H328.84V86.81H345l49.27,77.05h.27V86.81h14.78V188.08Z" style="fill: #1a2844"/>
    <path d="M430.38,188.08V86.81h14.78v87.72h35.18v13.55Z" style="fill: #1a2844"/>
    <path d="M490.6,188.08V86.81h14.78V188.08Z" style="fill: #1a2844"/>
    <path d="M590.91,188.08,540.82,109.8h-.27v78.28H525.77V86.81h16.15l49.26,77.05h.28V86.81h14.78V188.08Z" style="fill: #1a2844"/>
    <path d="M625.39,188.08V86.81H680v13.55H640.17v29.83H680v13.55H640.17v30.79H680v13.55Z" style="fill: #1a2844"/>
  </g>
</svg>
