<svg xmlns="http://www.w3.org/2000/svg" viewBox="0 0 880 190">
  <g>
    <path d="M208,93.53V26.27h17.18V78.44h19.9V93.53Z" style="fill: #1a2844"/>
    <path d="M297.88,93.53l-3.27-9.73H271.26l-3.55,9.73H249.26l27-67.26H289.8l26.72,67.26ZM283.16,47.27l-.27-.09-6.91,23h14.09Z" style="fill: #1a2844"/>
    <path d="M366.59,93.53,356.51,50h-.19L346.24,93.53H330.69L313.34,26.27h17.45l9,43.72H340l9.91-43.72h13.18l9.72,43.9H373l9.18-43.9h17.36L381.68,93.53Z" style="fill: #1a2844"/>
    <path d="M435.21,93.53V26.27h22.72c7.18-.09,12.54.91,16.09,2.55,7.27,3.36,11.81,11.08,11.81,20.17,0,12.45-6.9,23.45-26.17,23.45h-8V93.53ZM459,57.35c6.91,0,10.36-2.36,10.36-8.08,0-5.46-3.36-7.91-11-7.91h-6.73v16Z" style="fill: #1a2844"/>
    <path d="M525.19,93.53,509.64,71.8h-.18V93.53H493V26.27h22c7,0,12.36.91,15.9,2.46,7.27,3.27,12.36,11.17,12.36,20.72,0,10.63-6.36,19.36-16.72,21.17l18.27,22.91Zm-9.36-33.45c6.81,0,11-3.18,11-9.63,0-5.82-4.36-9.09-10.81-9.09h-6.55V60.08Z" style="fill: #1a2844"/>
    <path d="M595.71,93.53l-3.27-9.73H569.08l-3.54,9.73H547.09l27-67.26h13.54l26.72,67.26ZM581,47.27l-.27-.09-6.91,23H587.9Z" style="fill: #1a2844"/>
    <path d="M665.42,51.81c-2.91-7.36-9.27-11.72-16.27-11.72-10.72,0-18,9.18-18,19.63,0,10.9,7.45,20,18.08,20,6.82,0,12.64-3.82,16.18-11.36h18a35.47,35.47,0,0,1-59.08,16.36C617.07,77.62,614,69.08,614,58.9,614,41.09,629.34,25,648.61,25c9.27,0,16.72,2.55,23.45,8.27,6.36,5.45,10.17,11.63,11.36,18.54Z" style="fill: #1a2844"/>
    <path d="M700.41,93.53V41.36H687.14V26.27h43.63V41.36H717.59V93.53Z" style="fill: #1a2844"/>
    <path d="M737.67,93.53V26.27h17.18V93.53Z" style="fill: #1a2844"/>
    <path d="M815.74,51.81c-2.9-7.36-9.27-11.72-16.26-11.72-10.73,0-18,9.18-18,19.63,0,10.9,7.45,20,18.09,20,6.81,0,12.63-3.82,16.17-11.36h18a35.46,35.46,0,0,1-59.07,16.36c-7.27-7.09-10.36-15.63-10.36-25.81,0-17.81,15.35-33.9,34.62-33.9,9.27,0,16.72,2.55,23.45,8.27,6.36,5.45,10.18,11.63,11.36,18.54Z" style="fill: #1a2844"/>
    <path d="M842.65,93.53V26.27H880V41.36H859.1V51.81h20.26V66.9H859.1V78.44H880V93.53Z" style="fill: #1a2844"/>
  </g>
  <g>
    <polygon points="90 101.03 63.31 71.85 3.92 80.86 90 101.03" style="fill: #29516d"/>
    <path d="M79,106.46l-11,5.54-10.91,5.61-9.89,5.14c-3.28-3.44-6.55-6.89-9.86-10.3l-10.65-11L16,90.47l-6.89-7L90,101,12.21,81.48,19,80.42C24,79.66,28.93,78.83,33.87,78L48.7,75.59l14.17-2.41,6.36,6.64,6.88,7.11Q83,94,90,101q-6.34-7.61-12.79-15.09l-6.47-7.48L64.24,71l-.42-.49-.7.1-14.89,2L33.36,74.68c-5,.71-9.92,1.37-14.87,2.12L3.63,79,0,79.55l2.56,2.63c3.57,3.66,7.17,7.28,10.77,10.9L24.14,104,35,114.75c3.61,3.62,7.28,7.18,10.92,10.76l.8.78.92-.53,10.64-6.08,10.62-6.14,10.57-6.21c3.52-2.08,7-4.19,10.52-6.3Q84.48,103.71,79,106.46Z" style="fill: #446780"/>
    <polygon points="36.8 186.44 46.95 124.51 90 101.03 36.8 186.44" style="fill: #1a2844"/>
    <path d="M91.47,157.26l-.23-14.06-.32-14.06-.4-14.06q-.21-7-.52-14-.3,7-.52,14l-.4,14.06-.32,14.06-.22,13.17c-8.7,4.58-17.35,9.26-26,13.9l-21.29,11.6L90,101,39.93,178.91c1.25-7.72,2.51-15.43,3.68-23.16L46,140.25l2.2-14.89,10-5.75,10.62-6.12Q79.47,107.32,90,101q-11,5.41-21.92,11l-10.91,5.62-10.88,5.66-.57.29-.12.68-2.78,15.44-2.68,15.45c-1.82,10.3-3.48,20.63-5.22,30.94L34.26,190l3.46-1.91,26.56-14.67c8.81-5,17.66-9.86,26.43-14.88l.78-.45Z" style="fill: #37435c"/>
    <polygon points="90 101.03 90 157.25 143.2 186.44 90 101.03" style="fill: #793b42"/>
    <path d="M145.08,186.13c-1.74-10.31-3.4-20.64-5.22-30.94l-2.68-15.45L134.4,124.3l-.12-.68-.57-.29-10.88-5.66-10.91-5.62Q101,106.47,90,101q10.52,6.31,21.13,12.46l10.62,6.12,10.05,5.75,2.2,14.89,2.39,15.5c1.17,7.73,2.43,15.44,3.68,23.16L90,101l48.77,80.84-21.29-11.6c-8.67-4.64-17.32-9.32-26-13.9l-.22-13.17-.32-14.06-.4-14.06q-.21-7-.52-14-.3,7-.52,14l-.4,14.06-.32,14.06-.23,14.06,0,.83.78.45c8.77,5,17.62,9.92,26.43,14.88l26.56,14.67,3.46,1.91Z" style="fill: #8a545a"/>
    <polygon points="176.08 80.86 133.04 124.51 90 101.03 176.08 80.86" style="fill: #d94e41"/>
    <path d="M176.37,79,161.51,76.8c-4.95-.75-9.91-1.41-14.87-2.12l-14.87-2.07-14.89-2-.7-.1-.42.49-6.5,7.45-6.47,7.48Q96.33,93.43,90,101q7-7,13.89-14.1l6.88-7.11,6.36-6.64,14.17,2.41L146.13,78c4.94.8,9.88,1.63,14.83,2.39l6.83,1.06L90,101l80.87-17.58-6.89,7-10.72,11-10.65,11c-3.31,3.41-6.58,6.86-9.86,10.3l-9.89-5.14L112,112l-11-5.54q-5.48-2.74-11-5.43c3.5,2.11,7,4.22,10.52,6.3l10.57,6.21,10.62,6.14,10.64,6.08.92.53.8-.78c3.64-3.58,7.31-7.14,10.92-10.76L155.86,104l10.81-10.87c3.6-3.62,7.2-7.24,10.77-10.9L180,79.55Z" style="fill: #de6459"/>
    <polygon points="90 101.03 116.69 71.85 90 15.62 90 101.03" style="fill: #eb8956"/>
    <path d="M118.13,71.17,111.78,57c-2.11-4.73-4.31-9.43-6.46-14.15l-3.25-7.07-3.3-7L92.16,14.61,90,10l-2.16,4.61L81.23,28.69l-3.31,7.05-3.24,7.07c-2.15,4.72-4.35,9.42-6.47,14.15L61.86,71.17l-.45,1,.71.74C66.73,77.64,71.3,82.4,76,87.07s9.32,9.35,14,14Q83.76,93.35,77.36,85.8c-4-4.77-8.08-9.47-12.13-14.19l6.53-13c2.33-4.64,4.58-9.31,6.88-14l3.42-7,3.37-7,3.27-6.82L90,101l1.3-77.2,3.27,6.83,3.37,7,3.43,7c2.3,4.66,4.55,9.33,6.88,14l6.53,13c-4.06,4.72-8.13,9.42-12.14,14.18Q96.24,93.33,90,101q7.09-6.91,14-14c4.66-4.68,9.23-9.43,13.83-14.16l.71-.73Z" style="fill: #ee986b"/>
  </g>
  <g>
    <path d="M265.07,188.59l.57-52.09-.19-.19-14.86,52.28H238.84l-15-52.75.56,52.75H208V119h22.85l13.82,45.79h.19L258.49,119h22.95v69.58Z" style="fill: #1a2844"/>
    <path d="M338.88,188.59l-3.38-10.06H311.33l-3.66,10.06H288.58L316.51,119h14l27.64,69.58Zm-15.23-47.86-.28-.09-7.15,23.78H330.8Z" style="fill: #1a2844"/>
    <path d="M408.56,188.59l-26.71-42.5.47,42.5h-17V119h15.33l27.08,44L407,119h17v69.58Z" style="fill: #1a2844"/>
    <path d="M481.52,188.59l-3.38-10.06H454l-3.67,10.06H431.22L459.14,119h14l27.65,69.58Zm-15.23-47.86-.28-.09-7.15,23.78h14.57Z" style="fill: #1a2844"/>
    <path d="M574.33,153c0,18.71-13.73,37.05-37.15,37.05-20.59,0-36.95-16.08-36.95-36.48,0-21.06,17-35.83,37.24-35.83,15.7,0,30.84,10.63,34.79,24.64H552.32a17.07,17.07,0,0,0-15.32-9c-11.19,0-19,9-19,20.22,0,11.56,7.34,20.87,19.09,20.87,8.27,0,14.48-4,16.64-11.19H533V149h41.38Z" style="fill: #1a2844"/>
    <path d="M583.54,188.59V119h38.64v15.61H600.56v10.81h21V161h-21V173h21.62v15.61Z" style="fill: #1a2844"/>
    <path d="M690.26,188.59l.56-52.09-.18-.19-14.86,52.28H664l-15-52.75.56,52.75H633.18V119H656l13.82,45.79H670L683.68,119h22.94v69.58Z" style="fill: #1a2844"/>
    <path d="M719.22,188.59V119h38.64v15.61H736.24v10.81h21V161h-21V173h21.62v15.61Z" style="fill: #1a2844"/>
    <path d="M812.12,188.59l-26.71-42.5.47,42.5h-17V119h15.33l27.08,44-.75-44h17v69.58Z" style="fill: #1a2844"/>
    <path d="M848.6,188.59v-54H834.87V119H880v15.61H866.37v54Z" style="fill: #1a2844"/>
  </g>
  <g>
    <g>
      <path d="M130.92,54.58a36.88,36.88,0,0,0,6.2,6,33.62,33.62,0,0,0,7.36,4.31,29.86,29.86,0,0,0,8.17,2.14,26.84,26.84,0,0,0,8.39-.36l-.65,1.39a28.75,28.75,0,0,0-5.25-6.86,27.42,27.42,0,0,0-7.07-5,25,25,0,0,0-8.35-2.42A22.66,22.66,0,0,0,130.92,54.58Zm0,0a21.05,21.05,0,0,1,8.86-1.7,24.12,24.12,0,0,1,8.91,2,27.31,27.31,0,0,1,7.7,5,29.68,29.68,0,0,1,5.67,7.28l.63,1.14-1.28.25a27.57,27.57,0,0,1-9,.27,28.85,28.85,0,0,1-8.56-2.58,30.6,30.6,0,0,1-7.35-4.95A31.93,31.93,0,0,1,130.92,54.58Z" style="fill: #29516d"/>
      <path d="M160.69,68.43c-2.21-1.56-4.55-3-6.9-4.43s-4.78-2.72-7.24-3.94-5-2.31-7.57-3.28A53.78,53.78,0,0,0,131,54.56a53.82,53.82,0,0,1,8.11,1.77c2.64.82,5.25,1.79,7.81,2.86s5.06,2.28,7.53,3.55,4.89,2.62,7.28,4.11Z" style="fill: #29516d"/>
    </g>
    <g>
      <path d="M144.25,35.78A40.42,40.42,0,0,0,146.1,27a34.29,34.29,0,0,0-.26-8.77,30,30,0,0,0-2.6-8.26,26.73,26.73,0,0,0-4.89-7l2-.25A29.71,29.71,0,0,0,137.13,11a28.34,28.34,0,0,0-.61,8.86,25.47,25.47,0,0,0,2.34,8.61A23.78,23.78,0,0,0,144.25,35.78Zm0,0A20.92,20.92,0,0,1,137.76,29a24.59,24.59,0,0,1-3.19-9,27.84,27.84,0,0,1,.23-9.59,31,31,0,0,1,3.37-9L139,0l1.16,1.23A28.12,28.12,0,0,1,145.37,9a28.9,28.9,0,0,1,2.38,9,31.29,31.29,0,0,1-3.5,17.76Z" style="fill: #eb8956"/>
      <path d="M140.51,2.15c-.2,2.77-.26,5.62-.23,8.45s.16,5.66.4,8.48.64,5.63,1.17,8.42a53.48,53.48,0,0,0,2.32,8.2,54.23,54.23,0,0,1-2.93-8.06c-.74-2.76-1.33-5.57-1.81-8.4s-.79-5.69-1-8.56S138,5,138,2Z" style="fill: #eb8956"/>
    </g>
    <path d="M145.22,36.71c-2.37,2.75-4.78,5.45-7.17,8.14S133.26,50.22,131,53s-4.62,5.49-6.77,8.36a77.24,77.24,0,0,0-6,9,37.86,37.86,0,0,1,4.68-9.87,76.74,76.74,0,0,1,6.53-8.77,105.74,105.74,0,0,1,7.5-7.91A83.28,83.28,0,0,1,145.22,36.71Z" style="fill: #1a2844"/>
    <g>
      <path d="M146.28,37.21a37.54,37.54,0,0,0,8,6.68,33.07,33.07,0,0,0,9.41,4,37.28,37.28,0,0,0,10.09,1,45.33,45.33,0,0,0,10.09-1.45l-.92,2.24a31.12,31.12,0,0,0-6.74-7.89,28.82,28.82,0,0,0-9-5.16,28.44,28.44,0,0,0-10.38-1.57A32.65,32.65,0,0,0,146.28,37.21Zm0,0a27.41,27.41,0,0,1,21.63-2.86A29.28,29.28,0,0,1,178,39.54a33,33,0,0,1,7.49,8.57l1.07,1.76-2,.48a45,45,0,0,1-10.78,1.35,35.32,35.32,0,0,1-10.76-1.63,31,31,0,0,1-9.61-5A30.81,30.81,0,0,1,146.28,37.21Z" style="fill: #793b42"/>
      <path d="M147.67,37.59c3.2.29,6.38.75,9.55,1.31s6.31,1.25,9.44,2.05,6.22,1.75,9.28,2.83a92.84,92.84,0,0,1,9,3.78l-1.45,2.66a84.47,84.47,0,0,0-8.41-4.34c-2.89-1.28-5.85-2.46-8.87-3.48s-6.07-2-9.17-2.77S150.83,38.13,147.67,37.59Z" style="fill: #793b42"/>
    </g>
    <g>
      <path d="M125,55.2a29.91,29.91,0,0,0,2-10.58,27.41,27.41,0,0,0-2.12-10.3,30.5,30.5,0,0,0-5.64-8.79,36.1,36.1,0,0,0-8.08-6.68l2.12-.79a31.44,31.44,0,0,0,.22,20,37.62,37.62,0,0,0,4.67,9.2A49.32,49.32,0,0,0,125,55.2Zm0,0a38.51,38.51,0,0,1-8-7.11,35.17,35.17,0,0,1-5.65-9.26A31.15,31.15,0,0,1,109,28.11a32.93,32.93,0,0,1,1.49-10.93l.53-1.77,1.59,1a37.64,37.64,0,0,1,8.64,7.33,30.91,30.91,0,0,1,5.7,9.8,26.71,26.71,0,0,1,1.42,11.16A25.94,25.94,0,0,1,125,55.2Z" style="fill: #d94e41"/>
      <path d="M125.13,54.76c-2.82-5.95-5.35-12-7.78-18.16S112.66,24.28,110.51,18l2.76-.84q2.52,9.51,5.44,18.92C120.68,42.38,122.75,48.62,125.13,54.76Z" style="fill: #d94e41"/>
    </g>
  </g>
</svg>
