<svg xmlns="http://www.w3.org/2000/svg" viewBox="0 0 680 180">
  <path d="M208.55,82.36V31.08h-13V16.25h42.88V31.08h-13V82.36Z" style="fill: #1a2844"/>
  <path d="M245.18,82.36V16.25H281.9V31.08H261.35V41.35h19.92V56.18H261.35V67.53H281.9V82.36Z" style="fill: #1a2844"/>
  <path d="M334.07,82.36,319.78,59,306.2,82.36H287.35l23.14-35.2L290,16.25h19.12L320.49,35.1l11-18.85h19L330.32,47.52l22.87,34.84Z" style="fill: #1a2844"/>
  <path d="M402.77,82.36l-3.21-9.56h-23l-3.49,9.56H355l26.53-66.11h13.31l26.27,66.11ZM388.3,36.89,388,36.8l-6.79,22.6h13.85Z" style="fill: #1a2844"/>
  <path d="M453.79,35.55c-.72-4.74-2.68-6.43-6-6.43-3.12,0-5.8,2.23-5.8,5.18,0,3.93,3.57,5.71,10.81,8.84C467.37,49.39,471,54.67,471,63.33c0,12.78-8.75,20.28-23,20.28s-23.85-7.5-23.85-21.71V60.47h16.79c.09,5.45,2.77,9,7,9a6.31,6.31,0,0,0,6.35-6.35c0-5.27-7.33-7.59-13.32-10-10.81-4.38-15.72-10.1-15.72-18.67C425.2,23.22,436.1,15,448.25,15A25.07,25.07,0,0,1,460,17.77c7.06,3.66,10.46,8.93,10.54,17.78Z" style="fill: #1a2844"/>
  <path d="M504.45,82.36V16.25h21.17a50.21,50.21,0,0,1,10.54.81c7.51,1.69,13.76,7.5,13.76,16.43a14.88,14.88,0,0,1-7.68,13.4c7.23,2.5,10.9,7.78,10.9,15.37,0,6.34-2.68,12.15-7.69,15.63-5.18,3.67-8.57,4.47-19,4.47Zm22.87-41c4.2,0,6.43-1.78,6.43-5.27s-2.14-5-6.34-5h-6.79V41.35Zm2,26.18c4.74,0,7.69-2,7.69-6.34,0-3.84-2.6-5.72-7.6-5.72h-8.75V67.53Z" style="fill: #1a2844"/>
  <path d="M604,82.36l-3.22-9.56h-23l-3.48,9.56H556.17l26.54-66.11H596l26.26,66.11ZM589.5,36.89l-.27-.09-6.79,22.6h13.85Z" style="fill: #1a2844"/>
  <path d="M660.7,82.36,645.43,61h-.18V82.36H629.08V16.25H650.7c6.88,0,12.15.89,15.63,2.41,7.15,3.22,12.15,11,12.15,20.37,0,10.45-6.25,19-16.44,20.82l18,22.51Zm-9.2-32.88c6.7,0,10.81-3.12,10.81-9.47,0-5.71-4.29-8.93-10.63-8.93h-6.43v18.4Z" style="fill: #1a2844"/>
  <path d="M208.55,178.65V107.4h24.07c7.61-.1,13.29,1,17,2.69,7.71,3.57,12.52,11.75,12.52,21.38,0,13.19-7.32,24.84-27.73,24.84H226v22.34Zm25.23-38.32c7.32,0,11-2.51,11-8.57,0-5.78-3.56-8.38-11.65-8.38H226v17Z" style="fill: #1a2844"/>
  <path d="M303.87,178.65l-16.46-23h-.19v23H269.79V107.4h23.3c7.42,0,13.1,1,16.85,2.6,7.7,3.46,13.1,11.84,13.1,21.95,0,11.27-6.74,20.51-17.72,22.44l19.35,24.26ZM294,143.22c7.22,0,11.65-3.37,11.65-10.21,0-6.16-4.62-9.63-11.46-9.63h-6.93v19.84Z" style="fill: #1a2844"/>
  <path d="M378.6,178.65l-3.47-10.3H350.38l-3.75,10.3H327.08l28.6-71.25H370l28.31,71.25Zm-15.6-49-.29-.1-7.32,24.37h14.93Z" style="fill: #1a2844"/>
  <path d="M452.45,134.45c-3.08-7.8-9.82-12.42-17.23-12.42-11.37,0-19.07,9.73-19.07,20.8,0,11.56,7.9,21.19,19.16,21.19,7.22,0,13.39-4.05,17.14-12h19.07a37.57,37.57,0,0,1-62.59,17.33c-7.71-7.51-11-16.56-11-27.35,0-18.87,16.27-35.91,36.69-35.91,9.82,0,17.72,2.69,24.84,8.76,6.74,5.78,10.79,12.33,12,19.64Z" style="fill: #1a2844"/>
  <path d="M489.52,178.65V123.38H475.46v-16h46.22v16h-14v55.27Z" style="fill: #1a2844"/>
  <path d="M529,178.65V107.4h18.2v71.25Z" style="fill: #1a2844"/>
  <path d="M611.71,134.45c-3.08-7.8-9.82-12.42-17.23-12.42-11.36,0-19.07,9.73-19.07,20.8,0,11.56,7.9,21.19,19.16,21.19,7.23,0,13.39-4.05,17.14-12h19.07a37.57,37.57,0,0,1-62.59,17.33c-7.7-7.51-11-16.56-11-27.35,0-18.87,16.28-35.91,36.69-35.91,9.82,0,17.72,2.69,24.84,8.76,6.74,5.78,10.79,12.33,12,19.64Z" style="fill: #1a2844"/>
  <path d="M640.21,178.65V107.4h39.58v16H657.64v11.07h21.48v16H657.64v12.23h22.15v16Z" style="fill: #1a2844"/>
  <g>
    <polygon points="90 91.03 63.31 61.85 3.92 70.86 90 91.03" style="fill: #29516d"/>
    <path d="M79,96.46l-11,5.54-10.91,5.61-9.89,5.14c-3.28-3.44-6.55-6.89-9.86-10.3l-10.65-11L16,80.47l-6.89-7L90,91,12.21,71.48,19,70.42C24,69.66,28.93,68.83,33.87,68L48.7,65.59l14.17-2.41,6.36,6.64,6.88,7.11Q83,84,90,91q-6.34-7.61-12.79-15.09l-6.47-7.48L64.24,61l-.42-.49-.7.1-14.89,2L33.36,64.68c-5,.71-9.92,1.37-14.87,2.12L3.63,69,0,69.55l2.56,2.63c3.57,3.66,7.17,7.28,10.77,10.9L24.14,94,35,104.75c3.61,3.62,7.28,7.18,10.92,10.76l.8.78.92-.53,10.64-6.08,10.62-6.14,10.57-6.21C83,95.25,86.5,93.14,90,91Q84.48,93.71,79,96.46Z" style="fill: #446780"/>
    <polygon points="36.8 176.44 46.95 114.51 90 91.03 36.8 176.44" style="fill: #1a2844"/>
    <path d="M91.47,147.26l-.23-14.06-.32-14.06-.4-14.06q-.21-7-.52-14-.3,7-.52,14l-.4,14.06-.32,14.06-.22,13.17c-8.7,4.58-17.35,9.26-26,13.9l-21.29,11.6L90,91,39.93,168.91c1.25-7.72,2.51-15.43,3.68-23.16L46,130.25l2.2-14.89,10-5.75,10.62-6.12Q79.47,97.32,90,91q-11,5.41-21.92,11l-10.91,5.62-10.88,5.66-.57.29-.12.68-2.78,15.44-2.68,15.45c-1.82,10.3-3.48,20.63-5.22,30.94L34.26,180l3.46-1.91,26.56-14.67c8.81-5,17.66-9.86,26.43-14.88l.78-.45Z" style="fill: #37435c"/>
    <polygon points="90 91.03 90 147.25 143.2 176.44 90 91.03" style="fill: #793b42"/>
    <path d="M145.08,176.13c-1.74-10.31-3.4-20.64-5.22-30.94l-2.68-15.45L134.4,114.3l-.12-.68-.57-.29-10.88-5.66-10.91-5.62Q101,96.47,90,91q10.52,6.31,21.13,12.46l10.62,6.12,10.05,5.75,2.2,14.89,2.39,15.5c1.17,7.73,2.43,15.44,3.68,23.16L90,91l48.77,80.84-21.29-11.6c-8.67-4.64-17.32-9.32-26-13.9l-.22-13.17-.32-14.06-.4-14.06q-.21-7-.52-14-.3,7-.52,14l-.4,14.06-.32,14.06-.23,14.06,0,.83.78.45c8.77,5,17.62,9.92,26.43,14.88l26.56,14.67,3.46,1.91Z" style="fill: #8a545a"/>
    <polygon points="176.08 70.86 133.04 114.51 90 91.03 176.08 70.86" style="fill: #d94e41"/>
    <path d="M176.37,69,161.51,66.8c-4.95-.75-9.91-1.41-14.87-2.12l-14.87-2.07-14.89-2-.7-.1-.42.49-6.5,7.45-6.47,7.48Q96.33,83.43,90,91q7-7,13.89-14.1l6.88-7.11,6.36-6.64,14.17,2.41L146.13,68c4.94.8,9.88,1.63,14.83,2.39l6.83,1.06L90,91l80.87-17.58-6.89,7-10.72,11-10.65,11c-3.31,3.41-6.58,6.86-9.86,10.3l-9.89-5.14L112,102l-11-5.54Q95.53,93.72,90,91c3.5,2.11,7,4.22,10.52,6.3l10.57,6.21,10.62,6.14,10.64,6.08.92.53.8-.78c3.64-3.58,7.31-7.14,10.92-10.76L155.86,94l10.81-10.87c3.6-3.62,7.2-7.24,10.77-10.9L180,69.55Z" style="fill: #de6459"/>
    <polygon points="90 91.03 116.69 61.85 90 5.62 90 91.03" style="fill: #eb8956"/>
    <path d="M118.13,61.17,111.78,47c-2.11-4.73-4.31-9.43-6.46-14.15l-3.25-7.07-3.3-7L92.16,4.61,90,0,87.84,4.61,81.23,18.69l-3.31,7-3.24,7.07c-2.15,4.72-4.35,9.42-6.47,14.15L61.86,61.17l-.45,1,.71.74C66.73,67.64,71.3,72.4,76,77.07s9.32,9.35,14,14Q83.76,83.35,77.36,75.8c-4-4.77-8.08-9.47-12.13-14.19l6.53-13c2.33-4.64,4.58-9.31,6.88-14l3.42-7,3.37-7,3.27-6.82L90,91l1.3-77.2,3.27,6.83,3.37,7,3.43,7c2.3,4.66,4.55,9.33,6.88,14l6.53,13c-4.06,4.72-8.13,9.42-12.14,14.18Q96.24,83.33,90,91q7.09-6.91,14-14c4.66-4.68,9.23-9.43,13.83-14.16l.71-.73Z" style="fill: #ee986b"/>
  </g>
</svg>
